<svg width="260" height="32" viewBox="0 0 260 32" fill="none" xmlns="http://www.w3.org/2000/svg">
<rect x="228.5" y="0.5" width="31" height="31" rx="15.5" stroke="white"/>
<g clip-path="url(#clip0)">
<path d="M248.936 13.9626C248.913 13.4371 248.828 13.0758 248.706 12.7627C248.58 12.4304 248.387 12.1329 248.134 11.8855C247.887 11.6343 247.587 11.4392 247.259 11.3155C246.944 11.1938 246.584 11.1088 246.059 11.0856C245.529 11.0605 245.361 11.0547 244.018 11.0547C242.675 11.0547 242.507 11.0605 241.98 11.0837C241.454 11.1068 241.093 11.1919 240.78 11.3136C240.448 11.4392 240.15 11.6324 239.903 11.8855C239.652 12.1329 239.456 12.4324 239.333 12.7608C239.211 13.0758 239.126 13.4351 239.103 13.9607C239.078 14.4901 239.072 14.6582 239.072 16.0011C239.072 17.344 239.078 17.5121 239.101 18.0396C239.124 18.5651 239.209 18.9264 239.331 19.2395C239.456 19.5718 239.652 19.8693 239.903 20.1167C240.15 20.3679 240.45 20.5631 240.778 20.6867C241.093 20.8084 241.452 20.8934 241.978 20.9166C242.505 20.9398 242.674 20.9456 244.016 20.9456C245.359 20.9456 245.527 20.9398 246.055 20.9166C246.58 20.8934 246.942 20.8084 247.255 20.6867C247.919 20.4297 248.445 19.9041 248.702 19.2395C248.824 18.9245 248.909 18.5651 248.932 18.0396C248.955 17.5121 248.961 17.344 248.961 16.0011C248.961 14.6582 248.959 14.4901 248.936 13.9626ZM248.045 18.0009C248.024 18.484 247.943 18.7448 247.875 18.9187C247.709 19.3496 247.367 19.6916 246.936 19.8578C246.762 19.9254 246.499 20.0066 246.018 20.0278C245.496 20.051 245.34 20.0568 244.02 20.0568C242.701 20.0568 242.542 20.051 242.022 20.0278C241.539 20.0066 241.278 19.9254 241.105 19.8578C240.89 19.7786 240.695 19.653 240.537 19.4887C240.372 19.3283 240.247 19.1351 240.167 18.9207C240.1 18.7468 240.019 18.484 239.997 18.0029C239.974 17.4812 239.969 17.3247 239.969 16.005C239.969 14.6853 239.974 14.5268 239.997 14.0071C240.019 13.524 240.1 13.2632 240.167 13.0893C240.247 12.8748 240.372 12.6797 240.539 12.5212C240.699 12.357 240.892 12.2314 241.107 12.1522C241.28 12.0846 241.543 12.0034 242.024 11.9821C242.546 11.959 242.703 11.9532 244.022 11.9532C245.344 11.9532 245.5 11.959 246.02 11.9821C246.503 12.0034 246.764 12.0846 246.938 12.1522C247.152 12.2314 247.348 12.357 247.506 12.5212C247.67 12.6816 247.796 12.8748 247.875 13.0893C247.943 13.2632 248.024 13.5259 248.045 14.0071C248.068 14.5288 248.074 14.6853 248.074 16.005C248.074 17.3247 248.068 17.4792 248.045 18.0009Z" fill="white"/>
<path d="M244.018 13.4604C242.616 13.4604 241.478 14.5985 241.478 16.0013C241.478 17.4041 242.616 18.5421 244.018 18.5421C245.421 18.5421 246.559 17.4041 246.559 16.0013C246.559 14.5985 245.421 13.4604 244.018 13.4604ZM244.018 17.6495C243.108 17.6495 242.37 16.9114 242.37 16.0013C242.37 15.0912 243.108 14.3531 244.018 14.3531C244.928 14.3531 245.667 15.0912 245.667 16.0013C245.667 16.9114 244.928 17.6495 244.018 17.6495Z" fill="white"/>
<path d="M247.253 13.36C247.253 13.6876 246.987 13.9532 246.66 13.9532C246.332 13.9532 246.066 13.6876 246.066 13.36C246.066 13.0324 246.332 12.7668 246.66 12.7668C246.987 12.7668 247.253 13.0324 247.253 13.36Z" fill="white"/>
</g>
<path d="M16 0C7.17756 0 0 7.17756 0 16C0 24.8224 7.17756 32 16 32C24.8224 32 32 24.8224 32 16C32 7.17756 24.8224 0 16 0ZM16 30.1694C8.18692 30.1694 1.83059 23.813 1.83059 16C1.83059 8.18703 8.18692 1.83059 16 1.83059C23.8131 1.83059 30.1694 8.18703 30.1694 16C30.1694 23.813 23.8131 30.1694 16 30.1694Z" fill="white"/>
<path d="M19.7057 7.31738H17.5361C15.7603 7.31738 14.3155 8.76213 14.3155 10.5379V12.9787H12.2943C11.7887 12.9787 11.379 13.3884 11.379 13.894C11.379 14.3995 11.7887 14.8093 12.2943 14.8093H14.3155V23.2842C14.3155 23.7898 14.7253 24.1995 15.2308 24.1995C15.7364 24.1995 16.1461 23.7898 16.1461 23.2842V14.8093H19.2734C19.779 14.8093 20.1887 14.3995 20.1887 13.894C20.1887 13.3884 19.779 12.9787 19.2734 12.9787H16.1461V10.5379C16.1461 9.7715 16.7697 9.14798 17.5361 9.14798H19.7056C20.2112 9.14798 20.6209 8.73823 20.6209 8.23268C20.6209 7.72713 20.2112 7.31738 19.7057 7.31738Z" fill="white"/>
<path d="M103.314 4.68631C100.292 1.66425 96.2737 0 92 0C87.7263 0 83.7083 1.66425 80.6863 4.68631C77.6643 7.70831 76 11.7263 76 16C76 20.2737 77.6643 24.2917 80.6863 27.3137C83.7083 30.3358 87.7263 32 92 32C96.2737 32 100.292 30.3358 103.314 27.3137C106.336 24.2916 108 20.2737 108 16C108 11.7263 106.336 7.70831 103.314 4.68631ZM92 30.9895C83.7347 30.9895 77.0105 24.2653 77.0105 16C77.0105 7.73475 83.7347 1.0105 92 1.0105C100.265 1.0105 106.99 7.73475 106.99 16C106.99 24.2653 100.265 30.9895 92 30.9895Z" fill="white"/>
<path d="M103.272 10.1495C103.12 10.018 102.9 9.99554 102.717 10.0801C102.456 10.2014 102.189 10.3079 101.917 10.3993C102.186 10.0315 102.402 9.62292 102.554 9.18479C102.616 9.0041 102.585 8.79879 102.456 8.6581C102.294 8.48223 102.035 8.44523 101.833 8.5606C101.094 8.98142 100.298 9.26723 99.4622 9.41173C98.5274 8.55367 97.3247 8.08423 96.0471 8.08423C93.4025 8.08423 91.2254 10.1244 91.0066 12.7133C90.4602 12.628 89.3913 12.3232 89.1357 12.2397C87.2869 11.61 85.6215 10.5013 84.3186 9.03298C84.2413 8.94592 84.1396 8.88117 84.0251 8.86023C83.7951 8.81823 83.5769 8.93435 83.4786 9.13142C83.1547 9.78035 82.9905 10.4782 82.9905 11.2055C82.9905 12.2113 83.3054 13.1593 83.8726 13.9386C83.6958 13.9054 83.5077 13.9675 83.3843 14.1192C83.3134 14.2065 83.2779 14.3172 83.2737 14.4296C83.2718 14.4809 83.2701 14.5323 83.2701 14.5841C83.2701 15.9477 83.8945 17.187 84.9036 17.9959C84.8339 18.043 84.7752 18.1082 84.7347 18.1885C84.6745 18.3075 84.6678 18.4474 84.7076 18.5746C85.1483 19.9845 86.2433 21.0583 87.6008 21.4984C86.3712 22.2469 84.949 22.6505 83.4959 22.6505C83.3676 22.6505 83.2355 22.6472 83.1034 22.6408C82.8506 22.6292 82.6237 22.8057 82.5802 23.0623C82.5447 23.2716 82.6529 23.4809 82.8357 23.5887C84.6931 24.6843 86.8191 25.2632 88.9851 25.2632C91.5701 25.2632 94.0324 24.4582 96.0855 22.9679C96.3387 22.784 96.3667 22.4166 96.1454 22.1953L96.1452 22.1951C95.967 22.0169 95.6866 21.9977 95.4824 22.1455C93.6527 23.4704 91.407 24.2527 88.985 24.2527C87.6276 24.2527 86.2874 24.0047 85.0316 23.527C86.5505 23.2603 87.9862 22.6015 89.1821 21.6075C89.3266 21.4874 89.4027 21.2974 89.3663 21.1131C89.3198 20.8777 89.1181 20.7112 88.8846 20.7047C87.6542 20.6698 86.5559 19.99 85.966 18.9509C86.2473 18.9374 86.5289 18.8989 86.806 18.8359C87.0174 18.7877 87.1884 18.6189 87.2159 18.4038C87.249 18.1449 87.0826 17.9085 86.8356 17.8477C85.5158 17.5227 84.5452 16.45 84.3269 15.1442C84.7137 15.2349 85.1159 15.275 85.5173 15.2627C85.765 15.2553 85.9746 15.0684 86.0043 14.8149C86.0277 14.6151 85.9216 14.4217 85.7499 14.317C84.6544 13.6494 84.0009 12.4875 84.0009 11.2055C84.0009 10.8922 84.0398 10.5857 84.1171 10.289C85.4416 11.5986 87.0492 12.5966 88.8099 13.1964C88.8261 13.2019 90.5657 13.7435 91.2247 13.7462C91.2677 13.7472 91.4731 13.7563 91.4734 13.7563C91.6852 13.7649 91.8905 13.6364 91.9705 13.4234C91.9935 13.3623 92.0019 13.2965 92.0003 13.2313C91.9996 13.2019 91.9989 13.1724 91.9989 13.1428C91.9989 10.9107 93.8148 9.09479 96.0469 9.09479C97.1399 9.09479 98.1643 9.52429 98.9318 10.304C99.0429 10.417 99.1994 10.4726 99.3564 10.4509C99.8706 10.3795 100.372 10.2618 100.859 10.0989C100.6 10.3829 100.295 10.6262 99.9523 10.8179C99.7216 10.947 99.6237 11.2277 99.7324 11.4688L99.7399 11.4853C99.8289 11.6823 100.033 11.8006 100.248 11.7803C100.666 11.7404 101.078 11.6716 101.483 11.5746C101.125 11.9436 100.732 12.2788 100.305 12.5778C100.166 12.6754 100.086 12.837 100.091 13.0069L100.092 13.0388C100.094 13.0734 100.095 13.108 100.095 13.1428V13.1885C100.083 16.0191 99.0036 18.6044 97.2407 20.5631C97.0606 20.7632 97.0718 21.0704 97.2622 21.2608C97.4692 21.4678 97.8072 21.4577 98.0031 21.24C99.9838 19.0395 101.08 16.2288 101.105 13.2462C102.007 12.5747 102.767 11.7539 103.369 10.8029C103.502 10.5938 103.465 10.3161 103.272 10.1495Z" fill="white"/>
<rect x="152.5" y="0.5" width="31" height="31" rx="15.5" stroke="white"/>
<g clip-path="url(#clip1)">
<path d="M172.887 9.89087H163.113C162.441 9.89087 161.891 10.4407 161.891 11.1127V20.8872C161.891 21.5592 162.441 22.1091 163.113 22.1091H172.887C173.559 22.1091 174.109 21.5592 174.109 20.8872V11.1127C174.109 10.4407 173.559 9.89087 172.887 9.89087ZM165.556 20.2763H163.724V14.7781H165.556V20.2763ZM164.64 13.7396C164.029 13.7396 163.54 13.2509 163.54 12.64C163.54 12.0291 164.029 11.5403 164.64 11.5403C165.251 11.5403 165.74 12.0291 165.74 12.64C165.74 13.2509 165.251 13.7396 164.64 13.7396ZM172.276 20.2763H170.444V17.0385C170.444 16.5498 170.016 16.1221 169.527 16.1221C169.039 16.1221 168.611 16.5498 168.611 17.0385V20.2763H166.778V14.7781H168.611V15.5112C168.916 15.0225 169.588 14.656 170.138 14.656C171.299 14.656 172.276 15.6334 172.276 16.7941V20.2763Z" fill="white"/>
</g>
<defs>
<clipPath id="clip0">
<rect width="9.89091" height="9.89091" fill="white" transform="translate(239.055 11.0547)"/>
</clipPath>
<clipPath id="clip1">
<rect width="12.2182" height="12.2182" fill="white" transform="translate(161.891 9.89087)"/>
</clipPath>
</defs>
</svg>
